<?xml version="1.0" standalone="no"?>
<!DOCTYPE svg PUBLIC "-//W3C//DTD SVG 20010904//EN"
 "http://www.w3.org/TR/2001/REC-SVG-20010904/DTD/svg10.dtd">
<svg version="1.0" xmlns="http://www.w3.org/2000/svg"
 width="100.000000pt" height="100.000000pt" viewBox="0 0 100.000000 100.000000"
 preserveAspectRatio="xMidYMid meet">
<metadata>
Created by potrace 1.11, written by Peter Selinger 2001-2013
</metadata>
<g transform="translate(0.000000,100.000000) scale(0.100000,-0.100000)"
fill="#000000" stroke="none">
<path d="M0 500 l0 -500 500 0 500 0 0 500 0 500 -500 0 -500 0 0 -500z m417
306 c34 -60 71 -122 83 -138 l21 -28 149 0 149 0 18 -27 c50 -73 134 -236 126
-244 -5 -5 -146 -10 -313 -11 l-304 -3 -70 -124 c-39 -69 -76 -126 -82 -128
-5 -2 -43 55 -83 127 -68 124 -71 132 -58 158 7 15 41 77 75 138 34 61 62 114
62 118 0 5 -31 64 -70 132 -38 68 -70 128 -70 134 0 7 50 10 152 8 l152 -3 63
-109z m194 -521 c5 4 9 1 9 -4 0 -6 -7 -11 -15 -11 -20 0 -19 -37 0 -43 12 -4
11 -5 -2 -3 -18 1 -35 49 -26 73 5 13 7 13 15 -1 5 -9 13 -14 19 -11z m-143
-17 c3 -14 -3 -18 -24 -18 -30 0 -23 -14 11 -23 12 -3 8 -5 -10 -4 -31 2 -43
23 -31 53 8 21 50 14 54 -8z m79 -18 c1 -34 1 -34 -5 -5 -4 17 -14 30 -22 30
-8 0 -18 -13 -21 -30 -7 -30 -7 -30 -8 6 -1 33 1 36 27 35 24 -1 27 -5 29 -36z
m153 31 c0 -5 -8 -8 -17 -7 -12 1 -20 -9 -24 -29 l-7 -30 -1 35 c-1 31 2 36
24 38 14 1 25 -2 25 -7z m79 -10 c13 -24 -8 -55 -35 -49 -20 3 -30 29 -20 54
8 20 43 17 55 -5z m76 8 c12 -19 -4 -59 -24 -59 -11 0 -22 -8 -24 -17 -3 -10
-5 5 -6 32 -1 47 1 51 24 53 13 1 27 -3 30 -9z m55 -29 c4 0 12 10 18 23 6 12
11 16 11 9 2 -25 -39 -92 -56 -92 -15 0 -15 2 2 13 16 12 16 18 7 47 -15 41
-14 53 0 23 6 -13 14 -23 18 -23z"/>
<path d="M115 880 c-4 -6 17 -52 47 -103 l53 -92 104 -3 c57 -1 108 1 112 5 9
10 -82 172 -107 190 -22 16 -200 18 -209 3z"/>
<path d="M536 597 c-22 -16 -116 -178 -110 -189 6 -9 185 -11 208 -2 20 8 119
181 111 194 -9 15 -187 13 -209 -3z"/>
<path d="M137 467 c-26 -46 -47 -93 -47 -104 0 -20 84 -178 100 -188 10 -6
110 167 110 190 0 22 -93 184 -106 185 -6 0 -31 -38 -57 -83z"/>
<path d="M425 270 c-3 -5 3 -10 15 -10 12 0 18 5 15 10 -3 6 -10 10 -15 10 -5
0 -12 -4 -15 -10z"/>
<path d="M734 265 c-7 -18 3 -35 22 -35 8 0 14 10 14 25 0 27 -27 35 -36 10z"/>
<path d="M817 273 c-4 -3 -7 -15 -7 -25 0 -28 34 -19 38 10 3 21 -16 31 -31
15z"/>
</g>
</svg>
